#!OML:ASF F:\VICON\USERDATA\INSTALL\rory3\rory3.ASF
:FULLY-SPECIFIED
:DEGREES
2050
root 1.3461 15.4593 -3.35404 329.964 -71.4166 2.95128
lowerback 21.4077 -0.731377 -6.45233
upperback 11.5343 -2.8888 2.51168
thorax 1.13142 -2.22889 6.93674
lowerneck -10.2418 -1.16855 -10.6035
upperneck 37.1813 -2.12178 4.26205
head 14.7347 -2.32701 3.21498
rclavicle -7.35503e-015 -1.59028e-015
rhumerus -64.1364 20.134 -101.333
rradius 74.4109
rwrist -29.5534
rhand -18.076 13.7256
rfingers 7.12502
rthumb 8.19694 -16.0954
lclavicle -7.35503e-015 -1.59028e-015
lhumerus -51.6684 -28.3528 109.486
lradius 60.2811
lwrist 38.9125
lhand -36.9069 21.3813
lfingers 7.12502
lthumb -9.98486 51.1245
rfemur -56.7092 -1.32391 22.9326
rtibia 77.0415
rfoot 18.5589 -17.186
rtoes 19.0507
lfemur -57.2728 14.0044 -8.64944
ltibia 91.2736
lfoot 19.5872 -0.259521
ltoes -6.69531
2051
root 1.3664 15.4521 -3.36257 330.068 -71.353 2.62598
lowerback 21.5793 -0.729444 -6.54705
upperback 11.5287 -2.91683 2.54546
thorax 1.0544 -2.24799 7.0435
lowerneck -10.3278 -1.1332 -10.6801
upperneck 37.2006 -2.03999 4.27871
head 14.7573 -2.30039 3.24856
rclavicle -9.93923e-016 -1.82882e-014
rhumerus -63.6391 19.5954 -101.047
rradius 74.3475
rwrist -29.8903
rhand -18.3617 14.0655
rfingers 7.12502
rthumb 7.92121 -15.7661
lclavicle -9.93923e-016 -1.82882e-014
lhumerus -51.858 -29.0857 109.886
lradius 60.2597
lwrist 39.0605
lhand -36.9695 21.5296
lfingers 7.12502
lthumb -10.0453 51.2699
rfemur -57.0564 -1.19679 22.993
rtibia 76.9085
rfoot 18.485 -17.0068
rtoes 18.169
lfemur -57.2861 13.7174 -8.37358
ltibia 91.0191
lfoot 19.4925 0.112608
ltoes -5.72267
2052
root 1.3811 15.4488 -3.36906 329.932 -71.4199 2.45958
lowerback 21.6818 -0.64337 -6.63556
upperback 11.6045 -2.83516 2.57578
thorax 1.08251 -2.22103 7.11546
lowerneck -10.2905 -1.04779 -10.854
upperneck 37.0424 -1.94528 4.5414
head 14.6656 -2.24046 3.40174
rclavicle -2.78299e-015 2.38542e-014
rhumerus -63.1384 18.8316 -100.584
rradius 74.3951
rwrist -29.2662
rhand -18.4615 13.9232
rfingers 7.12502
rthumb 7.82494 -15.912
lclavicle -2.78299e-015 2.38542e-014
lhumerus -52.0119 -29.8045 110.298
lradius 60.1812
lwrist 39.061
lhand -37.152 21.7375
lfingers 7.12502
lthumb -10.2213 51.4692
rfemur -57.2307 -0.987188 23.0828
rtibia 76.7393
rfoot 18.2409 -16.7682
rtoes 17.3827
lfemur -57.071 13.5338 -8.02026
ltibia 90.7597
lfoot 19.2889 0.324762
ltoes -5.54422
2053
root 1.39269 15.4451 -3.36919 329.926 -71.553 2.19017
lowerback 21.6883 -0.591148 -6.62043
upperback 11.6897 -2.77259 2.59392
thorax 1.16344 -2.2002 7.11209
lowerneck -9.81326 -0.78445 -10.9819
upperneck 36.3905 -1.66364 4.93971
head 14.2168 -2.05456 3.61527
rclavicle -3.48867e-014 7.15625e-015
rhumerus -62.7445 18.3552 -100.193
rradius 74.5452
rwrist -28.6672
rhand -18.5677 13.7722
rfingers 7.12502
rthumb 7.72242 -16.0668
lclavicle -3.48867e-014 7.15625e-015
lhumerus -52.1669 -30.4906 110.639
lradius 60.1522
lwrist 39.2248
lhand -37.2875 22.0805
lfingers 7.12502
lthumb -10.352 51.8057
rfemur -57.3926 -0.838928 23.2894
rtibia 76.5827
rfoot 18.0308 -16.296
rtoes 16.211
lfemur -56.8553 13.4109 -7.6419
ltibia 90.5109
lfoot 19.0687 0.227511
ltoes -6.47696
2054
root 1.40906 15.4405 -3.36746 329.318 -71.5671 2.73055
lowerback 21.613 -0.551232 -6.84396
upperback 11.6928 -2.7568 2.51974
thorax 1.21201 -2.20221 7.15213
lowerneck -10.4955 -0.949339 -10.7558
upperneck 37.0108 -1.77232 4.52537
head 14.6766 -2.14874 3.4038
rclavicle 1.14102e-013 -6.04305e-014
rhumerus -62.4179 18.1287 -99.9356
rradius 74.7252
rwrist -28.4027
rhand -18.5704 13.5756
rfingers 7.12502
rthumb 7.71984 -16.2635
lclavicle 1.14102e-013 -6.04305e-014
lhumerus -52.3144 -31.0867 110.957
lradius 60.1126
lwrist 39.4888
lhand -37.4201 22.4188
lfingers 7.12502
lthumb -10.4799 52.1376
rfemur -57.7853 -0.712341 23.1907
rtibia 76.4657
rfoot 17.9324 -15.7174
rtoes 15.0112
lfemur -56.7759 13.212 -7.58532
ltibia 90.2189
lfoot 18.8786 0.369585
ltoes -6.46079
2055
root 1.42706 15.4289 -3.36006 327.955 -71.4643 4.15102
lowerback 21.5278 -0.502913 -7.32257
upperback 11.6809 -2.77518 2.34072
thorax 1.26638 -2.22907 7.23002
lowerneck -10.8903 -0.937872 -10.727
upperneck 37.2262 -1.6938 4.4611
head 14.8634 -2.12572 3.39026
rclavicle -1.03368e-014 -3.73715e-014
rhumerus -61.9042 18.0717 -99.7514
rradius 74.7389
rwrist -28.449
rhand -18.7852 13.2943
rfingers 7.12502
rthumb 7.51248 -16.5523
lclavicle -1.03368e-014 -3.73715e-014
lhumerus -52.375 -31.4821 111.161
lradius 60.0419
lwrist 39.6142
lhand -37.528 22.6056
lfingers 7.12502
lthumb -10.584 52.3191
rfemur -58.3267 -0.563067 22.7235
rtibia 76.3952
rfoot 17.5752 -15.3506
rtoes 14.8801
lfemur -56.7326 12.9596 -7.82375
ltibia 89.9351
lfoot 18.6439 0.674041
ltoes -5.56119
2056
root 1.44637 15.4191 -3.35624 327.177 -71.5325 4.86351
lowerback 21.4955 -0.46779 -7.6021
upperback 11.7145 -2.78312 2.23703
thorax 1.33452 -2.24953 7.27519
lowerneck -10.8685 -0.777276 -10.8244
upperneck 36.9609 -1.48247 4.69234
head 14.7074 -2.00303 3.5313
rclavicle 6.95746e-016 1.98785e-014
rhumerus -61.3079 18.3389 -99.6366
rradius 74.6626
rwrist -28.767
rhand -19.1602 13.1471
rfingers 7.12502
rthumb 7.15052 -16.7121
lclavicle 6.95746e-016 1.98785e-014
lhumerus -52.4868 -31.8784 111.359
lradius 60.1188
lwrist 39.74
lhand -37.9919 23.1754
lfingers 7.12502
lthumb -11.0314 52.8655
rfemur -58.7064 -0.290118 22.5549
rtibia 76.2869
rfoot 16.9986 -15.1664
rtoes 15.4769
lfemur -56.6167 12.8079 -7.72362
ltibia 89.6864
lfoot 18.513 0.800466
ltoes -5.31809
2057
root 1.46432 15.4179 -3.36109 327.005 -71.7258 4.81919
lowerback 21.4712 -0.457976 -7.68119
upperback 11.7952 -2.79211 2.18053
thorax 1.43997 -2.26846 7.25563
lowerneck -10.4315 -0.53345 -10.8555
upperneck 36.2725 -1.19762 4.94351
head 14.2477 -1.81839 3.66274
rclavicle 1.15295e-014 2.46493e-014
rhumerus -60.6398 18.7637 -99.5826
rradius 74.4532
rwrist -28.9535
rhand -19.5943 12.9977
rfingers 7.12502
rthumb 6.73142 -16.8753
lclavicle 1.15295e-014 2.46493e-014
lhumerus -52.7058 -32.3092 111.587
lradius 60.2738
lwrist 39.8134
lhand -38.6915 24.0761
lfingers 7.12502
lthumb -11.7062 53.729
rfemur -58.8322 -0.0407373 22.761
rtibia 76.1485
rfoot 16.5456 -14.6855
rtoes 15.0787
lfemur -56.3119 12.6189 -7.26322
ltibia 89.4102
lfoot 18.4729 0.549569
ltoes -6.53564
2058
root 1.48111 15.421 -3.37169 325.883 -71.7283 5.87662
lowerback 21.3065 -0.383565 -8.25591
upperback 11.8619 -2.79122 2.03002
thorax 1.62934 -2.30614 7.4084
lowerneck -10.1022 -0.314673 -10.7054
upperneck 35.7288 -0.92796 5.00199
head 13.8892 -1.64764 3.68044
rclavicle 5.56597e-014 4.77083e-015
rhumerus -59.8967 19.3127 -99.607
rradius 74.1012
rwrist -28.7818
rhand -20.017 12.8952
rfingers 7.12502
rthumb 6.32343 -16.9904
lclavicle 5.56597e-014 4.77083e-015
lhumerus -52.8138 -32.7016 111.749
lradius 60.3187
lwrist 39.7485
lhand -39.5385 24.7177
lfingers 7.12502
lthumb -12.5229 54.3224
rfemur -59.0839 0.159847 22.5798
rtibia 76.0248
rfoot 16.175 -14.279
rtoes 14.3669
lfemur -55.9466 12.2608 -7.16109
ltibia 89.0419
lfoot 18.3222 0.454946
ltoes -7.21465
2059
root 1.49972 15.4144 -3.37829 324.102 -71.5653 7.79371
lowerback 21.1545 -0.251653 -9.17069
upperback 11.8113 -2.76613 1.86864
thorax 1.70429 -2.33472 7.74518
lowerneck -10.0859 -0.18103 -10.5698
upperneck 35.6057 -0.724524 4.92038
head 13.8063 -1.5453 3.64741
rclavicle -3.13086e-014 -2.38542e-015
rhumerus -59.2193 20.0752 -99.6109
rradius 73.6897
rwrist -28.4312
rhand -20.2459 12.6611
rfingers 7.12502
rthumb 6.10244 -17.231
lclavicle -3.13086e-014 -2.38542e-015
lhumerus -52.9136 -33.0934 112.006
lradius 60.2531
lwrist 39.7694
lhand -40.4377 25.1871
lfingers 7.12502
lthumb -13.3897 54.7368
rfemur -59.641 0.370256 22.0016
rtibia 75.9771
rfoot 15.6733 -14.2102
rtoes 14.8554
lfemur -55.8102 11.8847 -7.3634
ltibia 88.6677
lfoot 18.2001 0.741057
ltoes -6.30386
2060
root 1.51767 15.4169 -3.36811 323.141 -71.8466 8.54763
lowerback 21.1423 -0.169836 -9.28549
upperback 11.8612 -2.68594 1.77909
thorax 1.75252 -2.30469 7.6955
lowerneck -10.1951 -0.109705 -10.6105
upperneck 35.6583 -0.603318 4.94319
head 13.8417 -1.49733 3.68326
rclavicle -4.38817e-014 4.13472e-014
rhumerus -58.5093 20.8777 -99.5869
rradius 73.2652
rwrist -28.2302
rhand -20.431 12.3954
rfingers 7.12502
rthumb 5.92375 -17.5018
lclavicle -4.38817e-014 4.13472e-014
lhumerus -53.1926 -33.7096 112.407
lradius 60.2429
lwrist 40.0234
lhand -41.1157 25.868
lfingers 7.12502
lthumb -14.0431 55.3735
rfemur -59.735 0.642693 22.0634
rtibia 75.8629
rfoot 15.2629 -13.9322
rtoes 14.5744
lfemur -55.3469 11.6732 -6.94654
ltibia 88.3897
lfoot 18.127 0.845655
ltoes -5.86503
2061
root 1.52941 15.4086 -3.35917 322.996 -72.2661 8.48948
lowerback 21.058 -0.117855 -9.17233
upperback 11.9129 -2.59484 1.75494
thorax 1.8231 -2.25993 7.58155
lowerneck -10.2083 -0.0244819 -10.4669
upperneck 35.6343 -0.494897 4.90417
head 13.8205 -1.43538 3.65606
rclavicle -1.32689e-014 -1.27222e-014
rhumerus -57.6917 21.6219 -99.5952
rradius 72.7597
rwrist -28.2464
rhand -20.805 12.3675
rfingers 7.12502
rthumb 5.56259 -17.5395
lclavicle -1.32689e-014 -1.27222e-014
lhumerus -53.498 -34.2459 112.716
lradius 60.3398
lwrist 40.3922
lhand -41.4355 26.7084
lfingers 7.12502
lthumb -14.3513 56.1923
rfemur -59.8282 0.854181 22.5618
rtibia 75.7582
rfoot 14.9126 -13.6229
rtoes 13.7874
lfemur -54.9907 11.5517 -6.21079
ltibia 88.2234
lfoot 18.0013 0.407164
ltoes -6.72174
2062
root 1.5403 15.3985 -3.34862 322.701 -72.5449 8.76058
lowerback 20.8134 -0.0852505 -9.22337
upperback 11.9182 -2.53589 1.72721
thorax 1.94129 -2.23669 7.55734
lowerneck -10.1995 0.0781282 -10.2609
upperneck 35.6047 -0.345953 4.76983
head 13.7887 -1.3596 3.58394
rclavicle -3.05134e-014 1.27222e-014
rhumerus -56.9091 22.4736 -99.5472
rradius 72.2864
rwrist -28.18
rhand -21.3653 12.5922
rfingers 7.12502
rthumb 5.02166 -17.3283
lclavicle -3.05134e-014 1.27222e-014
lhumerus -53.5907 -34.5249 112.929
lradius 60.3069
lwrist 40.9211
lhand -41.6567 27.4917
lfingers 7.12502
lthumb -14.5644 56.9604
rfemur -60.079 0.919555 22.9193
rtibia 75.6537
rfoot 14.6366 -13.4545
rtoes 13.2868
lfemur -54.7953 11.3219 -5.70691
ltibia 88.0706
lfoot 17.7294 -0.245811
ltoes -8.56942
2063
root 1.5567 15.3977 -3.33955 321.842 -72.7678 9.47574
lowerback 20.7365 -0.0249904 -9.37574
upperback 11.9473 -2.48019 1.6726
thorax 2.00892 -2.22131 7.57001
lowerneck -10.2694 0.151464 -10.3035
upperneck 35.5921 -0.215812 4.77647
head 13.7854 -1.30666 3.61253
rclavicle 6.38596e-014 -1.51076e-014
rhumerus -56.119 23.3447 -99.4337
rradius 71.8171
rwrist -27.9809
rhand -21.5942 12.8993
rfingers 7.12502
rthumb 4.80065 -17.0263
lclavicle 6.38596e-014 -1.51076e-014
lhumerus -53.6425 -34.8246 113.212
lradius 60.1667
lwrist 41.5866
lhand -42.0172 27.9913
lfingers 7.12502
lthumb -14.9117 57.4345
rfemur -60.1162 0.968665 23.1438
rtibia 75.522
rfoot 14.5205 -13.3551
rtoes 12.4522
lfemur -54.3665 11.0388 -5.34934
ltibia 87.8968
lfoot 17.5589 -0.769832
ltoes -7.50136
